<?xml version="1.0" standalone="no"?><!DOCTYPE svg PUBLIC "-//W3C//DTD SVG 1.1//EN" "http://www.w3.org/Graphics/SVG/1.1/DTD/svg11.dtd"><svg t="1593257446535" class="icon" viewBox="0 0 1024 1024" version="1.1" xmlns="http://www.w3.org/2000/svg" p-id="1447" xmlns:xlink="http://www.w3.org/1999/xlink" width="128" height="128"><defs><style type="text/css"></style></defs><path d="M917.19 202.635v618.57c0 53.011-42.974 95.985-95.985 95.985h-618.57c-53.011 0-95.985-42.974-95.985-95.985v-618.57c0-53.011 42.974-95.985 95.985-95.985h618.57c53.011 0 95.985 42.974 95.985 95.985z m-63.99 0c0-17.67-14.325-31.995-31.995-31.995h-618.57c-17.67 0-31.995 14.325-31.995 31.995v618.57c0 17.67 14.325 31.995 31.995 31.995h618.57c17.67 0 31.995-14.325 31.995-31.995v-618.57zM319.95 362.61h85.32v298.62h-85.32V362.61z m170.64 0h63.99v298.62h-63.99V362.61z m149.31 0h63.99v298.62H639.9V362.61z" p-id="1448" fill="#e6e6e6"></path></svg>