<?xml version="1.0" standalone="no"?><!DOCTYPE svg PUBLIC "-//W3C//DTD SVG 1.1//EN" "http://www.w3.org/Graphics/SVG/1.1/DTD/svg11.dtd"><svg t="1593229413209" class="icon" viewBox="0 0 1024 1024" version="1.1" xmlns="http://www.w3.org/2000/svg" p-id="4643" xmlns:xlink="http://www.w3.org/1999/xlink" width="32" height="32"><defs><style type="text/css"></style></defs><path d="M512 1.896C229.452 1.896 0 229.452 0 512s229.452 510.104 512 510.104S1022.104 794.548 1022.104 512 794.548 1.896 512 1.896z m-91.022 629.57c-26.548 0-49.304-5.688-75.852-11.377l-75.852 37.926 22.756-66.37c-54.993-37.926-87.23-87.23-87.23-147.912 0-104.296 98.607-185.837 218.074-185.837 108.089 0 201.007 64.474 219.97 153.6-7.585 0-13.274-1.896-20.859-1.896-104.296 0-185.837 77.748-185.837 172.563 0 15.17 1.896 30.34 7.585 45.511-7.585 3.793-15.17 3.793-22.755 3.793z m322.37 77.749l17.067 54.992-58.785-34.133c-22.756 5.689-43.615 11.378-66.37 11.378-104.297 0-185.838-70.163-185.838-157.393S530.963 424.77 635.26 424.77c98.608 0 185.837 70.163 185.837 159.29 0 47.407-32.237 91.021-77.748 125.155z" fill="#00D379" p-id="4644"></path><path d="M318.578 379.26c0 17.066 13.274 30.34 30.34 30.34s30.341-13.274 30.341-30.34-13.274-30.341-30.34-30.341-30.341 13.274-30.341 30.34z m235.14 159.288c0 13.274 11.378 24.652 24.652 24.652 13.274 0 24.652-11.378 24.652-24.652 0-13.274-11.378-24.652-24.652-24.652-13.274-1.896-24.651 9.482-24.651 24.652z m-81.54-159.289c0 17.067 13.274 30.341 30.34 30.341 17.067 0 30.341-13.274 30.341-30.34 0-17.067-13.274-30.341-30.34-30.341-17.067 0-30.341 13.274-30.341 30.34zM675.08 538.55c0 13.273 11.378 24.651 24.652 24.651 13.274 0 24.652-11.378 24.652-24.652 0-13.274-11.378-24.652-24.652-24.652-13.274-1.896-24.652 9.482-24.652 24.652z" fill="#00D379" p-id="4645"></path></svg>